<?xml version="1.0" encoding="utf-8"?>
<!-- Generator: Adobe Illustrator 16.0.0, SVG Export Plug-In . SVG Version: 6.00 Build 0)  -->
<!DOCTYPE svg PUBLIC "-//W3C//DTD SVG 1.1//EN" "http://www.w3.org/Graphics/SVG/1.1/DTD/svg11.dtd">
<svg version="1.1" id="Layer_1" xmlns="http://www.w3.org/2000/svg" xmlns:xlink="http://www.w3.org/1999/xlink" x="0px" y="0px"
	 width="600px" height="600px" viewBox="0 0 600 600" enable-background="new 0 0 600 600" xml:space="preserve">
<g>
	<linearGradient id="SVGID_1_" gradientUnits="userSpaceOnUse" x1="193.9346" y1="300" x2="422.7705" y2="300">
		<stop  offset="0" style="stop-color:#42C2D3"/>
		<stop  offset="1" style="stop-color:#4292D3"/>
	</linearGradient>
	<path fill="url(#SVGID_1_)" d="M403.218,299.549c26.071-26.073,26.07-68.343-0.001-94.415
		c-26.071-26.071-68.339-26.07-94.412,0.002c-23.39,23.389-25.78,59.806-7.203,85.879L193.935,398.684l15.734,15.734
		l107.667-107.667C343.409,325.326,379.828,322.938,403.218,299.549z M320.605,287.745c-19.553-19.552-19.553-51.255,0-70.809
		c19.554-19.553,51.257-19.553,70.811-0.001c19.554,19.554,19.553,51.257-0.002,70.81C371.861,307.299,340.16,307.3,320.605,287.745
		z"/>
	<g>
		<path fill="#42AAD3" d="M171.786,374.495l3.066-3.067l14.432,13.439l7.952,7.952l-3.563,3.563L171.786,374.495z M173.033,373.247
			l3.322-3.322l21.317,11.245l-11.26-21.302l3.082-3.082l15.153,28.622l-2.751,2.751L173.033,373.247z M187.9,358.38l3.082-3.082
			l21.888,21.888l-3.563,3.563l-7.952-7.952L187.9,358.38z"/>
	</g>
	<g>
		<path fill="#42AAD3" d="M197.628,332.23l3.066,3.066l-14.732,14.732l-3.066-3.066L197.628,332.23z M192.051,337.808l21.888,21.888
			l-3.638,3.638l-21.888-21.888L192.051,337.808z"/>
	</g>
	<g>
		<path fill="#42AAD3" d="M209.303,336.977l21.888,21.888l-3.653,3.653L205.65,340.63L209.303,336.977z M236.272,347.681
			l3.051,3.052l-9.095,9.095l-3.051-3.052L236.272,347.681z"/>
	</g>
	<g>
		<path fill="#42AAD3" d="M232.191,328.843c-0.521-0.521-1.105-0.851-1.752-0.99c-0.647-0.139-1.444-0.104-2.39,0.104
			c-0.946,0.21-2.117,0.594-3.513,1.152c-1.345,0.559-2.589,1.022-3.732,1.39c-1.142,0.368-2.202,0.584-3.179,0.648
			c-0.978,0.063-1.904-0.07-2.78-0.4c-0.876-0.33-1.727-0.908-2.552-1.733s-1.435-1.745-1.828-2.761
			c-0.394-1.016-0.571-2.075-0.533-3.18c0.039-1.104,0.308-2.205,0.81-3.304c0.501-1.098,1.247-2.142,2.237-3.132
			c1.409-1.409,2.882-2.336,4.417-2.78c1.536-0.444,3.041-0.457,4.513-0.038c1.472,0.419,2.799,1.219,3.979,2.399l-3.351,3.351
			c-0.571-0.571-1.238-0.983-2-1.237s-1.552-0.295-2.371-0.124c-0.819,0.172-1.583,0.613-2.294,1.323
			c-0.749,0.75-1.225,1.492-1.428,2.229s-0.197,1.421,0.019,2.056s0.578,1.207,1.086,1.715c0.38,0.38,0.761,0.653,1.142,0.818
			s0.822,0.231,1.323,0.2c0.501-0.032,1.107-0.156,1.818-0.372c0.711-0.216,1.587-0.526,2.628-0.933
			c1.942-0.851,3.669-1.473,5.179-1.866c1.511-0.394,2.888-0.464,4.132-0.21c1.245,0.255,2.418,0.934,3.523,2.038
			c0.901,0.901,1.555,1.879,1.961,2.933c0.406,1.053,0.572,2.14,0.495,3.256c-0.076,1.117-0.393,2.229-0.952,3.332
			c-0.559,1.104-1.353,2.171-2.381,3.198c-1.549,1.55-3.167,2.553-4.855,3.009c-1.688,0.458-3.307,0.464-4.855,0.02
			c-1.548-0.444-2.895-1.238-4.037-2.38l3.371-3.37c1.003,0.927,1.97,1.456,2.904,1.59c0.933,0.133,1.786,0.016,2.561-0.353
			s1.447-0.838,2.019-1.409c0.749-0.749,1.266-1.488,1.552-2.218c0.285-0.73,0.349-1.435,0.19-2.114
			C233.108,330.021,232.75,329.401,232.191,328.843z"/>
	</g>
</g>
<g>
	<linearGradient id="SVGID_2_" gradientUnits="userSpaceOnUse" x1="3.0542" y1="288.0752" x2="167.2012" y2="288.0752">
		<stop  offset="0" style="stop-color:#42C2D3"/>
		<stop  offset="1" style="stop-color:#4292D3"/>
	</linearGradient>
	<path fill="url(#SVGID_2_)" d="M3.054,403.437l70.465,0.515c7.642-87.474,41.512-167.343,93.682-231.752
		C77.586,213.818,13.066,300.551,3.054,403.437z"/>
	<linearGradient id="SVGID_3_" gradientUnits="userSpaceOnUse" x1="92.6929" y1="435.7334" x2="208.6787" y2="435.7334">
		<stop  offset="0" style="stop-color:#42C2D3"/>
		<stop  offset="1" style="stop-color:#4292D3"/>
	</linearGradient>
	<path fill="url(#SVGID_3_)" d="M158.85,575.346l49.829-49.827c-56.94-66.844-90.052-147.031-99.308-229.397
		C76.11,389.161,92.597,495.995,158.85,575.346z"/>
	<linearGradient id="SVGID_4_" gradientUnits="userSpaceOnUse" x1="198.8418" y1="90.335" x2="437.8975" y2="90.335">
		<stop  offset="0" style="stop-color:#42C2D3"/>
		<stop  offset="1" style="stop-color:#4292D3"/>
	</linearGradient>
	<path fill="url(#SVGID_4_)" d="M437.897,166.602C391.908,79.15,302.097,18.989,198.842,14.068l2.963,70.407
		C289.548,87.789,370.993,117.676,437.897,166.602z"/>
	<linearGradient id="SVGID_5_" gradientUnits="userSpaceOnUse" x1="13.5991" y1="161.2168" x2="290.0396" y2="161.2168">
		<stop  offset="0" style="stop-color:#42C2D3"/>
		<stop  offset="1" style="stop-color:#4292D3"/>
	</linearGradient>
	<path fill="url(#SVGID_5_)" d="M290.04,112.088c-94.568-28.628-200.458-6.888-276.44,63.2l52.225,47.307
		C129.777,162.428,208.23,125.398,290.04,112.088z"/>
	<linearGradient id="SVGID_6_" gradientUnits="userSpaceOnUse" x1="444.6719" y1="307.1406" x2="597.9316" y2="307.1406">
		<stop  offset="0" style="stop-color:#42C2D3"/>
		<stop  offset="1" style="stop-color:#4292D3"/>
	</linearGradient>
	<path fill="url(#SVGID_6_)" d="M597.932,187.845l-70.414,2.749c-3.583,87.735-33.715,169.088-82.846,235.842
		C532.262,380.712,592.697,291.084,597.932,187.845z"/>
	<linearGradient id="SVGID_7_" gradientUnits="userSpaceOnUse" x1="385.0273" y1="152.3115" x2="507.3564" y2="152.3115">
		<stop  offset="0" style="stop-color:#42C2D3"/>
		<stop  offset="1" style="stop-color:#4292D3"/>
	</linearGradient>
	<path fill="url(#SVGID_7_)" d="M432.493,13.994l-47.466,52.082C445,130.211,481.791,208.777,494.854,290.628
		C523.768,196.146,502.352,90.192,432.493,13.994z"/>
	<linearGradient id="SVGID_8_" gradientUnits="userSpaceOnUse" x1="159.751" y1="508.3438" x2="395.751" y2="508.3438">
		<stop  offset="0" style="stop-color:#42C2D3"/>
		<stop  offset="1" style="stop-color:#4292D3"/>
	</linearGradient>
	<path fill="url(#SVGID_8_)" d="M159.751,429.731c44.255,88.343,132.86,150.266,236,157.224l-1.574-70.45
		C306.515,511.458,225.677,479.971,159.751,429.731z"/>
	<linearGradient id="SVGID_9_" gradientUnits="userSpaceOnUse" x1="305.4541" y1="443.3359" x2="583.0898" y2="443.3359">
		<stop  offset="0" style="stop-color:#42C2D3"/>
		<stop  offset="1" style="stop-color:#4292D3"/>
	</linearGradient>
	<path fill="url(#SVGID_9_)" d="M305.454,489.396c93.985,30.489,200.283,10.844,277.636-57.729l-51.281-48.33
		C466.681,442.231,387.511,477.702,305.454,489.396z"/>
</g>
</svg>
